<svg preserveAspectRatio="none" overflow="visible" style="display: block;" width="20" height="20" viewBox="0 0 20 20" fill="none" xmlns="http://www.w3.org/2000/svg">
<g id="Icon">
<path id="vector" d="M2.70703 3C3.09363 3 3.40741 3.31361 3.4082 3.7002C3.41009 4.68754 3.41843 5.3302 3.46387 5.99316C3.51881 6.79402 3.62515 7.33436 3.8125 7.78613C4.35058 9.08306 5.3816 10.1147 6.67871 10.6523C7.13065 10.8396 7.67146 10.9453 8.47266 11C9.28032 11.0551 10.3013 11.0557 11.709 11.0557H16.1543C16.3797 11.0547 16.4957 11.0461 16.5273 10.9697C16.5629 10.8834 16.4609 10.7822 16.2578 10.5791L13 7.32031C12.9852 7.30547 12.9776 7.2977 12.9717 7.29102C12.8711 7.17753 12.8712 7.00713 12.9717 6.89355C12.9776 6.88683 12.985 6.87826 13 6.86328C13.0499 6.81341 13.0753 6.78842 13.0977 6.76855C13.4762 6.43295 14.0462 6.43293 14.4248 6.76855C14.4472 6.78844 14.4725 6.81432 14.5225 6.86426L18.0039 10.3457C18.6701 11.0119 19.0045 11.3449 19.0049 11.7588C19.0049 12.173 18.6705 12.5073 18.0039 13.1738L14.5264 16.6514C14.4757 16.702 14.4504 16.728 14.4277 16.748C14.0493 17.083 13.48 17.083 13.1016 16.748C13.0789 16.728 13.0535 16.7019 13.0029 16.6514C12.9879 16.6363 12.9796 16.6279 12.9736 16.6211C12.8737 16.5076 12.8735 16.337 12.9736 16.2236L16.2627 12.9355C16.4661 12.7321 16.567 12.6294 16.5313 12.543C16.4951 12.4571 16.3514 12.457 16.0645 12.457H13.0977C13.0944 12.457 13.0911 12.4561 13.0879 12.4561H11.709C10.3203 12.4561 9.2434 12.4566 8.37695 12.3975C7.50427 12.3379 6.79364 12.2151 6.14258 11.9453C4.50291 11.2657 3.19978 9.96264 2.51953 8.32324C2.24952 7.67233 2.12626 6.96138 2.06641 6.08887C2.01772 5.37856 2.00955 4.69006 2.00781 3.7002C2.00736 3.31374 2.32057 3.00021 2.70703 3Z" fill="black"/>
</g>
</svg>
