<svg preserveAspectRatio="none" overflow="visible" style="display: block;" width="20" height="20" viewBox="0 0 20 20" fill="none" xmlns="http://www.w3.org/2000/svg">
<g id="ic_stroke_2_files">
<g id="vector">
<path fill-rule="evenodd" clip-rule="evenodd" d="M8 6C10.8284 6 12.2424 6.00023 13.1211 6.87891L13.2764 7.0498C14.0003 7.93955 14 9.34846 14 12V13L13.998 13.9961C13.986 16.1736 13.8899 17.3523 13.1211 18.1211L12.9502 18.2764C12.1791 18.9038 11.018 18.9869 8.99609 18.998L8 19H7C4.17157 19 2.75759 18.9998 1.87891 18.1211C1.00023 17.2424 1 15.8284 1 13V12L1.00195 11.0039C1.01397 8.82639 1.11006 7.64775 1.87891 6.87891C2.75759 6.00023 4.17157 6 7 6H8ZM7 7.40039C5.54621 7.40039 4.5965 7.40269 3.89453 7.49707C3.23296 7.58604 3.00402 7.73231 2.86816 7.86816C2.73231 8.00402 2.58603 8.23296 2.49707 8.89453C2.40269 9.5965 2.40039 10.5462 2.40039 12V13C2.40039 14.4538 2.40269 15.4035 2.49707 16.1055C2.58604 16.767 2.73231 16.996 2.86816 17.1318C3.00402 17.2677 3.23296 17.414 3.89453 17.5029C4.5965 17.5973 5.54621 17.5996 7 17.5996H8C9.45379 17.5996 10.4035 17.5973 11.1055 17.5029C11.767 17.414 11.996 17.2677 12.1318 17.1318C12.2677 16.996 12.414 16.767 12.5029 16.1055C12.5973 15.4035 12.5996 14.4538 12.5996 13V12C12.5996 10.5462 12.5973 9.5965 12.5029 8.89453C12.414 8.23296 12.2677 8.00402 12.1318 7.86816C11.996 7.73231 11.767 7.58604 11.1055 7.49707C10.4035 7.40269 9.45379 7.40039 8 7.40039H7Z" fill="#0C1126"/>
<path d="M13.0078 1C15.8347 1 17.2478 1.0007 18.126 1.87891L18.2812 2.04883C19.0048 2.9381 19.0049 4.34693 19.0049 6.99707V8.02344L19.0029 9.01953C18.9909 11.1957 18.8944 12.3732 18.126 13.1416L17.9561 13.2969C17.3989 13.7502 16.6375 13.917 15.4951 13.9795C15.3312 13.9885 15.2489 13.9935 15.1826 13.9639C15.1213 13.9364 15.0687 13.8859 15.0381 13.8262C15.0052 13.7616 15.0056 13.6774 15.0059 13.5098C15.0063 13.1979 15.0061 13.0416 15.0615 12.9219C15.1154 12.8058 15.1966 12.7169 15.3076 12.6533C15.4221 12.5877 15.5869 12.5736 15.915 12.5449C15.9905 12.5383 16.0587 12.5316 16.1123 12.5244C16.7732 12.4355 17.0019 12.2891 17.1377 12.1533C17.2734 12.0176 17.4199 11.7888 17.5088 11.1279C17.6031 10.4263 17.6055 9.47646 17.6055 8.02344V6.99707C17.6055 5.54404 17.6031 4.59418 17.5088 3.89258C17.4199 3.23166 17.2734 3.00294 17.1377 2.86719C17.0019 2.73143 16.7732 2.58502 16.1123 2.49609C15.4107 2.40177 14.4608 2.39941 13.0078 2.39941H11.9775C10.5245 2.39941 9.57465 2.40177 8.87305 2.49609C8.21213 2.58502 7.98341 2.73143 7.84766 2.86719C7.7119 3.00294 7.56548 3.23166 7.47656 3.89258C7.46936 3.94614 7.46271 4.01435 7.45605 4.08984C7.42712 4.41806 7.41253 4.58266 7.34668 4.69727C7.28312 4.80786 7.19477 4.88866 7.0791 4.94238C6.95919 4.99801 6.8026 4.99783 6.49023 4.99805C6.32195 4.99816 6.23753 4.9991 6.17285 4.96582C6.11325 4.93514 6.06352 4.88248 6.03613 4.82129C6.00647 4.75493 6.01146 4.67272 6.02051 4.50879C6.09018 3.24569 6.28884 2.44945 6.85938 1.87891C7.73759 1.00069 9.1506 1 11.9775 1H13.0078Z" fill="#0C1126"/>
</g>
</g>
</svg>
